<svg width="1260" height="595" xmlns="http://www.w3.org/2000/svg" xmlns:xlink="http://www.w3.org/1999/xlink" xml:space="preserve" overflow="hidden"><g transform="translate(-1318 -453)"><path d="M1337 474C1419.95 456.46 1472.07 481.605 1527.66 474 1583.25 466.395 1653.29 475.192 1706.16 474 1759.02 472.808 1812.38 488.751 1908.99 474 2005.6 459.249 1999.81 477.109 2075.31 474 2150.81 470.891 2175.74 493.008 2253.81 474 2331.87 454.993 2446.81 506.686 2554 474 2556.72 534.482 2532.42 624.86 2554 668.333 2575.58 711.807 2551.25 805.558 2554 840.667 2556.75 875.776 2540.97 982.408 2554 1024 2498.09 1044.71 2444.46 1003.9 2363.34 1024 2282.21 1044.1 2223.27 1004.92 2136.16 1024 2049.05 1043.08 2038.85 1023.3 1945.5 1024 1852.15 1024.7 1809.07 1020.44 1754.84 1024 1700.6 1027.56 1608.27 1003.13 1527.66 1024 1447.05 1044.87 1380.62 1023.21 1337 1024 1325.42 957.167 1347.61 913.186 1337 840.667 1326.39 768.148 1352.24 713.726 1337 646.333 1321.76 578.941 1353.69 549.713 1337 474Z" stroke="#999999" stroke-width="27.5" stroke-miterlimit="8" fill="none" fill-rule="evenodd"/><path d="M1433 602C1437.67 608.86 1443.52 615.075 1447 622.581 1449.13 627.179 1453.8 662.363 1454 663.744 1452.83 701.477 1452.58 739.247 1450.5 776.942 1450.24 781.649 1447 785.948 1447 790.663 1447 826.127 1450.5 861.536 1450.5 897" stroke="#999999" stroke-width="45.8333" stroke-miterlimit="8" fill="none" fill-rule="evenodd"/><path d="M1540 605C1545.74 609.591 1556.35 611.476 1557.22 618.772 1563.52 671.202 1557.74 724.427 1560.67 777.152 1561.63 794.453 1567.18 800.996 1571 815.025 1573.5 824.156 1574.9 833.591 1577.89 842.57 1580.35 849.927 1583.7 859.105 1584.78 866.671 1585.27 870.079 1584.78 873.557 1584.78 877" stroke="#999999" stroke-width="45.8333" stroke-miterlimit="8" fill="none" fill-rule="evenodd"/><path d="M1461 746 1554 746" stroke="#999999" stroke-width="45.8333" stroke-miterlimit="8" fill="none" fill-rule="evenodd"/><path d="M1612 635.86C1613.15 671.354 1613.47 706.884 1615.44 742.342 1615.76 748.172 1617.99 753.747 1618.88 759.517 1620.29 768.641 1620.38 777.97 1622.32 786.996 1623.84 794.077 1626.91 800.736 1629.2 807.606 1630.35 816.766 1629.08 826.564 1632.64 835.086 1635.13 841.064 1641.55 844.522 1646.4 848.825 1663.22 863.76 1658.22 860.773 1673.92 866 1677.36 864.855 1682.06 865.461 1684.24 862.565 1688.94 856.309 1694.72 838.025 1698 828.216 1699.14 772.112 1699.39 715.983 1701.44 659.904 1706.01 534.385 1704.88 743.057 1704.88 618.685" stroke="#999999" stroke-width="45.8333" stroke-miterlimit="8" fill="none" fill-rule="evenodd"/><path d="M1784.28 894C1783.14 866.485 1783.42 838.874 1780.84 811.455 1779.96 802.043 1775.56 793.258 1773.96 783.94 1768.67 753.098 1764.74 722.036 1760.19 691.077 1757.83 675.037 1755.6 658.977 1753.3 642.926 1752.16 634.901 1750.76 626.908 1749.86 618.851 1748.71 608.533 1744.71 598.137 1746.42 587.896 1747.1 583.819 1751.01 594.775 1753.3 598.214 1764.32 658.747 1754.45 624.583 1791.17 697.956 1796.91 709.421 1803.33 720.569 1808.38 732.35 1810.97 738.377 1824.29 770.74 1829.04 777.062 1834.88 784.844 1842.81 790.819 1849.69 797.698 1851.99 803.43 1853.4 809.601 1856.58 814.895 1864.02 827.291 1881.59 843.328 1891 852.728L1880.67 842.41C1872.64 810.303 1880.64 845.531 1873.79 783.94 1873.14 778.13 1871.49 772.476 1870.35 766.743 1864.53 691.169 1866.9 736.98 1866.9 629.169" stroke="#999999" stroke-width="45.8333" stroke-miterlimit="8" fill="none" fill-rule="evenodd"/><path d="M2055.42 639.306C2049.7 635.871 2044.93 629 2038.26 629 2021.88 629 2005.92 634.68 1990.2 639.306 1984.13 641.093 1973.1 652.411 1969.61 656.483 1962.71 664.539 1953.62 678.176 1949.01 687.402 1947.39 690.641 1947.01 694.38 1945.58 697.709 1943.56 702.416 1941 706.87 1938.71 711.45 1932.64 766.127 1928.41 788.456 1942.15 859.174 1943.32 865.227 1953.25 864.908 1959.31 866.044 1971.73 868.376 1984.48 868.335 1997.07 869.48 2002.79 870.625 2008.4 872.915 2014.23 872.915 2105.91 872.915 2072.94 879.791 2069.15 769.853 2040.99 776.899 2060.14 773.288 2010.8 773.288" stroke="#999999" stroke-width="45.8333" stroke-miterlimit="8" fill="none" fill-rule="evenodd"/><path d="M2148.6 595C2149.73 601.872 2152 608.649 2152 615.615 2152 724.236 2152.14 666.079 2145.2 718.692 2143.34 732.813 2139.72 770.639 2138.4 783.974L2135 863" stroke="#999999" stroke-width="45.8333" stroke-miterlimit="8" fill="none" fill-rule="evenodd"/><path d="M2135 602C2170.35 604.288 2206.74 600.013 2241.05 608.864 2249.96 611.161 2250.88 624.514 2254.74 632.889 2259.28 642.764 2262.3 656.366 2265 667.21 2254.73 698.113 2262.48 700.447 2230.79 708.395 2202.58 715.469 2145.26 725.555 2145.26 725.555 2161.12 741.459 2173.34 752.271 2186.32 770.173 2198 786.287 2196.5 790.141 2206.84 807.926 2210.99 815.052 2216.38 821.393 2220.53 828.518 2224.38 835.147 2226.85 842.53 2230.79 849.111 2233.95 854.398 2245.51 869.253 2251.32 873.136 2262.66 880.724 2261.58 871.75 2261.58 880" stroke="#999999" stroke-width="45.8333" stroke-miterlimit="8" fill="none" fill-rule="evenodd"/><path d="M2286 604.818C2291.74 608.273 2297.34 611.966 2303.22 615.182 2309.98 618.881 2317.72 620.911 2323.88 625.545 2331.34 631.163 2360.66 663.428 2365.2 670.454 2372.17 681.263 2377.27 693.205 2382.41 705 2385.32 711.672 2385.82 719.333 2389.3 725.727 2392.82 732.2 2398.48 737.242 2403.07 743 2412.89 654.334 2395.73 782.83 2423.73 670.454 2432.12 636.802 2427.1 651.634 2437.5 625.545 2441.7 600.275 2440.95 611.823 2440.95 591" stroke="#999999" stroke-width="45.8333" stroke-miterlimit="8" fill="none" fill-rule="evenodd"/><path d="M2396 736C2400.52 741.704 2406.57 746.461 2409.57 753.111 2412.42 759.428 2413.19 766.709 2412.96 773.644 2412.06 801.102 2408.44 828.4 2406.18 855.778 2409.75 888.181 2416.81 879.273 2406.18 890" stroke="#999999" stroke-width="45.8333" stroke-miterlimit="8" fill="none" fill-rule="evenodd"/></g></svg>