<svg width="3080" height="1130" xmlns="http://www.w3.org/2000/svg" xmlns:xlink="http://www.w3.org/1999/xlink" xml:space="preserve" overflow="hidden"><g transform="translate(-356 -141)"><path d="M457 866.5C457 855.178 466.178 846 477.5 846L757.5 846C768.822 846 778 855.178 778 866.5L778 866.5C778 877.822 768.822 887 757.5 887L477.5 887C466.178 887 457 877.822 457 866.5Z" fill="#999999" fill-rule="evenodd"/><text fill="#999999" font-family="Arial,Arial_MSFontService,sans-serif" font-weight="400" font-size="83" transform="matrix(1 0 0 1 563.771 983)">12</text><path d="M778 866.5C778 855.178 787.178 846 798.5 846L1079.5 846C1090.82 846 1100 855.178 1100 866.5L1100 866.5C1100 877.822 1090.82 887 1079.5 887L798.5 887C787.178 887 778 877.822 778 866.5Z" fill="#999999" fill-rule="evenodd"/><text fill="#999999" font-family="Arial,Arial_MSFontService,sans-serif" font-weight="400" font-size="83" transform="matrix(1 0 0 1 884.999 983)">13</text><path d="M1100 866.5C1100 855.178 1109.18 846 1120.5 846L1400.5 846C1411.82 846 1421 855.178 1421 866.5L1421 866.5C1421 877.822 1411.82 887 1400.5 887L1120.5 887C1109.18 887 1100 877.822 1100 866.5Z" fill="#999999" fill-rule="evenodd"/><text fill="#999999" font-family="Arial,Arial_MSFontService,sans-serif" font-weight="400" font-size="83" transform="matrix(1 0 0 1 1206.23 983)">14</text><path d="M1421 866.5C1421 855.178 1430.18 846 1441.5 846L1721.5 846C1732.82 846 1742 855.178 1742 866.5L1742 866.5C1742 877.822 1732.82 887 1721.5 887L1441.5 887C1430.18 887 1421 877.822 1421 866.5Z" fill="#999999" fill-rule="evenodd"/><text fill="#999999" font-family="Arial,Arial_MSFontService,sans-serif" font-weight="400" font-size="83" transform="matrix(1 0 0 1 1527.45 983)">15</text><path d="M1742 866.5C1742 855.178 1751.18 846 1762.5 846L2042.5 846C2053.82 846 2063 855.178 2063 866.5L2063 866.5C2063 877.822 2053.82 887 2042.5 887L1762.5 887C1751.18 887 1742 877.822 1742 866.5Z" fill="#999999" fill-rule="evenodd"/><text fill="#999999" font-family="Arial,Arial_MSFontService,sans-serif" font-weight="400" font-size="83" transform="matrix(1 0 0 1 1848.68 983)">16</text><path d="M2063 866.5C2063 855.178 2072.18 846 2083.5 846L2363.5 846C2374.82 846 2384 855.178 2384 866.5L2384 866.5C2384 877.822 2374.82 887 2363.5 887L2083.5 887C2072.18 887 2063 877.822 2063 866.5Z" fill="#999999" fill-rule="evenodd"/><text fill="#999999" font-family="Arial,Arial_MSFontService,sans-serif" font-weight="400" font-size="83" transform="matrix(1 0 0 1 2169.91 983)">17</text><path d="M2384 866.5C2384 855.178 2393.18 846 2404.5 846L2685.5 846C2696.82 846 2706 855.178 2706 866.5L2706 866.5C2706 877.822 2696.82 887 2685.5 887L2404.5 887C2393.18 887 2384 877.822 2384 866.5Z" fill="#999999" fill-rule="evenodd"/><text fill="#999999" font-family="Arial,Arial_MSFontService,sans-serif" font-weight="400" font-size="83" transform="matrix(1 0 0 1 2491.14 983)">18</text><path d="M2706 866.5C2706 855.178 2715.18 846 2726.5 846L3006.5 846C3017.82 846 3027 855.178 3027 866.5L3027 866.5C3027 877.822 3017.82 887 3006.5 887L2726.5 887C2715.18 887 2706 877.822 2706 866.5Z" fill="#999999" fill-rule="evenodd"/><text fill="#999999" font-family="Arial,Arial_MSFontService,sans-serif" font-weight="400" font-size="83" transform="matrix(1 0 0 1 2812.37 983)">19</text><path d="M3027 866.5C3027 855.178 3036.18 846 3047.5 846L3327.5 846C3338.82 846 3348 855.178 3348 866.5L3348 866.5C3348 877.822 3338.82 887 3327.5 887L3047.5 887C3036.18 887 3027 877.822 3027 866.5Z" fill="#999999" fill-rule="evenodd"/><text fill="#999999" font-family="Arial,Arial_MSFontService,sans-serif" font-weight="400" font-size="83" transform="matrix(1 0 0 1 3133.59 983)">20</text><text fill="#999999" font-family="Arial,Arial_MSFontService,sans-serif" font-weight="700" font-size="64" transform="matrix(1 0 0 1 1406.91 447)">Abraham is </text><text fill="#999999" font-family="Arial,Arial_MSFontService,sans-serif" font-weight="700" font-size="64" transform="matrix(1 0 0 1 1384.29 509)">credited with </text><text fill="#999999" font-family="Arial,Arial_MSFontService,sans-serif" font-weight="700" font-size="64" transform="matrix(1 0 0 1 1363.09 570)">righteousness</text><rect x="1319" y="325" width="539" height="337" stroke="#999999" stroke-width="13.75" stroke-miterlimit="8" fill="none"/><path d="M1589 674 1589 856.188" stroke="#999999" stroke-width="13.75" stroke-miterlimit="8" fill="none" fill-rule="evenodd"/><text fill="#999999" font-family="Arial,Arial_MSFontService,sans-serif" font-weight="700" font-size="128" transform="matrix(1 0 0 1 1634.84 1141)">Genesis </text><text fill="#999999" font-family="Arial,Arial_MSFontService,sans-serif" font-weight="700" font-size="64" transform="matrix(1 0 0 1 1535.82 1217)">First Book of the Torah</text><text fill="#999999" font-family="Arial,Arial_MSFontService,sans-serif" font-weight="700" font-size="64" transform="matrix(1 0 0 1 486.814 416)">Abraham </text><text fill="#999999" font-family="Arial,Arial_MSFontService,sans-serif" font-weight="700" font-size="64" transform="matrix(1 0 0 1 415.818 478)">obeyed God’s </text><text fill="#999999" font-family="Arial,Arial_MSFontService,sans-serif" font-weight="700" font-size="64" transform="matrix(1 0 0 1 474.508 539)">command </text><text fill="#999999" font-family="Arial,Arial_MSFontService,sans-serif" font-weight="700" font-size="64" transform="matrix(1 0 0 1 480.237 601)">“by faith”</text><rect x="363" y="325" width="539" height="337" stroke="#999999" stroke-width="13.75" stroke-miterlimit="8" fill="none"/><path d="M634 663 634 845.188" stroke="#999999" stroke-width="13.75" stroke-miterlimit="8" fill="none" fill-rule="evenodd"/><text fill="#999999" font-family="Arial,Arial_MSFontService,sans-serif" font-weight="700" font-size="110" transform="matrix(1 0 0 1 1543.67 282)">A</text><text fill="#999999" font-family="Arial,Arial_MSFontService,sans-serif" font-weight="700" font-size="110" transform="matrix(1 0 0 1 592.804 282)">B</text></g></svg>