<svg width="3073" height="1129" xmlns="http://www.w3.org/2000/svg" xmlns:xlink="http://www.w3.org/1999/xlink" xml:space="preserve" overflow="hidden"><g transform="translate(-363 -1298)"><path d="M457 2022.5C457 2011.18 466.178 2002 477.5 2002L757.5 2002C768.822 2002 778 2011.18 778 2022.5L778 2022.5C778 2033.82 768.822 2043 757.5 2043L477.5 2043C466.178 2043 457 2033.82 457 2022.5Z" fill="#000000" fill-rule="evenodd"/><text fill="#000000" font-family="Arial,Arial_MSFontService,sans-serif" font-weight="400" font-size="83" transform="matrix(1 0 0 1 563.771 2140)">12</text><path d="M778 2022.5C778 2011.18 787.178 2002 798.5 2002L1079.5 2002C1090.82 2002 1100 2011.18 1100 2022.5L1100 2022.5C1100 2033.82 1090.82 2043 1079.5 2043L798.5 2043C787.178 2043 778 2033.82 778 2022.5Z" fill="#000000" fill-rule="evenodd"/><text fill="#000000" font-family="Arial,Arial_MSFontService,sans-serif" font-weight="400" font-size="83" transform="matrix(1 0 0 1 884.999 2140)">13</text><path d="M1100 2022.5C1100 2011.18 1109.18 2002 1120.5 2002L1400.5 2002C1411.82 2002 1421 2011.18 1421 2022.5L1421 2022.5C1421 2033.82 1411.82 2043 1400.5 2043L1120.5 2043C1109.18 2043 1100 2033.82 1100 2022.5Z" fill="#000000" fill-rule="evenodd"/><text fill="#000000" font-family="Arial,Arial_MSFontService,sans-serif" font-weight="400" font-size="83" transform="matrix(1 0 0 1 1206.23 2140)">14</text><path d="M1421 2022.5C1421 2011.18 1430.18 2002 1441.5 2002L1721.5 2002C1732.82 2002 1742 2011.18 1742 2022.5L1742 2022.5C1742 2033.82 1732.82 2043 1721.5 2043L1441.5 2043C1430.18 2043 1421 2033.82 1421 2022.5Z" fill="#000000" fill-rule="evenodd"/><text fill="#000000" font-family="Arial,Arial_MSFontService,sans-serif" font-weight="400" font-size="83" transform="matrix(1 0 0 1 1527.45 2140)">15</text><path d="M1742 2022.5C1742 2011.18 1751.18 2002 1762.5 2002L2042.5 2002C2053.82 2002 2063 2011.18 2063 2022.5L2063 2022.5C2063 2033.82 2053.82 2043 2042.5 2043L1762.5 2043C1751.18 2043 1742 2033.82 1742 2022.5Z" fill="#000000" fill-rule="evenodd"/><text fill="#000000" font-family="Arial,Arial_MSFontService,sans-serif" font-weight="400" font-size="83" transform="matrix(1 0 0 1 1848.68 2140)">16</text><path d="M2063 2022.5C2063 2011.18 2072.18 2002 2083.5 2002L2363.5 2002C2374.82 2002 2384 2011.18 2384 2022.5L2384 2022.5C2384 2033.82 2374.82 2043 2363.5 2043L2083.5 2043C2072.18 2043 2063 2033.82 2063 2022.5Z" fill="#000000" fill-rule="evenodd"/><text fill="#000000" font-family="Arial,Arial_MSFontService,sans-serif" font-weight="400" font-size="83" transform="matrix(1 0 0 1 2169.91 2140)">17</text><path d="M2384 2022.5C2384 2011.18 2393.18 2002 2404.5 2002L2685.5 2002C2696.82 2002 2706 2011.18 2706 2022.5L2706 2022.5C2706 2033.82 2696.82 2043 2685.5 2043L2404.5 2043C2393.18 2043 2384 2033.82 2384 2022.5Z" fill="#000000" fill-rule="evenodd"/><text fill="#000000" font-family="Arial,Arial_MSFontService,sans-serif" font-weight="400" font-size="83" transform="matrix(1 0 0 1 2491.14 2140)">18</text><path d="M2706 2022.5C2706 2011.18 2715.18 2002 2726.5 2002L3006.5 2002C3017.82 2002 3027 2011.18 3027 2022.5L3027 2022.5C3027 2033.82 3017.82 2043 3006.5 2043L2726.5 2043C2715.18 2043 2706 2033.82 2706 2022.5Z" fill="#000000" fill-rule="evenodd"/><text fill="#000000" font-family="Arial,Arial_MSFontService,sans-serif" font-weight="400" font-size="83" transform="matrix(1 0 0 1 2812.37 2140)">19</text><path d="M3027 2022.5C3027 2011.18 3036.18 2002 3047.5 2002L3327.5 2002C3338.82 2002 3348 2011.18 3348 2022.5L3348 2022.5C3348 2033.82 3338.82 2043 3327.5 2043L3047.5 2043C3036.18 2043 3027 2033.82 3027 2022.5Z" fill="#000000" fill-rule="evenodd"/><text fill="#000000" font-family="Arial,Arial_MSFontService,sans-serif" font-weight="400" font-size="83" transform="matrix(1 0 0 1 3133.59 2140)">20</text><text fill="#000000" font-family="Arial,Arial_MSFontService,sans-serif" font-weight="700" font-size="64" transform="matrix(1 0 0 1 1406.91 1603)">Abraham is </text><text fill="#000000" font-family="Arial,Arial_MSFontService,sans-serif" font-weight="700" font-size="64" transform="matrix(1 0 0 1 1384.29 1665)">credited with </text><text fill="#000000" font-family="Arial,Arial_MSFontService,sans-serif" font-weight="700" font-size="64" transform="matrix(1 0 0 1 1363.09 1726)">righteousness</text><text fill="#000000" font-family="Arial,Arial_MSFontService,sans-serif" font-weight="700" font-size="64" transform="matrix(1 0 0 1 2029.97 1634)">Abraham is </text><text fill="#000000" font-family="Arial,Arial_MSFontService,sans-serif" font-weight="700" font-size="64" transform="matrix(1 0 0 1 2017.66 1696)">circumcised</text><path d="M2211 1820 2211 2002.19" stroke="#000000" stroke-width="13.75" stroke-miterlimit="8" fill="none" fill-rule="evenodd"/><rect x="1319" y="1481" width="539" height="337" stroke="#000000" stroke-width="13.75" stroke-miterlimit="8" fill="none"/><rect x="1937" y="1481" width="539" height="337" stroke="#000000" stroke-width="13.75" stroke-miterlimit="8" fill="none"/><path d="M1589 1830 1589 2012.19" stroke="#000000" stroke-width="13.75" stroke-miterlimit="8" fill="none" fill-rule="evenodd"/><text fill="#000000" font-family="Arial,Arial_MSFontService,sans-serif" font-weight="700" font-size="128" transform="matrix(1 0 0 1 1634.84 2297)">Genesis </text><text fill="#000000" font-family="Arial,Arial_MSFontService,sans-serif" font-weight="700" font-size="64" transform="matrix(1 0 0 1 1535.82 2373)">First Book of the Torah</text><text fill="#000000" font-family="Arial,Arial_MSFontService,sans-serif" font-weight="700" font-size="110" transform="matrix(1 0 0 1 1543.67 1438)">A</text><text fill="#000000" font-family="Arial,Arial_MSFontService,sans-serif" font-weight="700" font-size="110" transform="matrix(1 0 0 1 2167.69 1438)">B</text></g></svg>